# xmcd CD database file
#
# Track frame offsets:
#	150
#	23470
#	45375
#
# Disc length: 916 seconds
#
# Revision: 0
# Processed by: cddbd v1.5.1PL0 Copyright (c) Steve Scherf et al.
# Submitted via: CDex 1.51
#
DISCID=13039203
DTITLE=Romi - 見つめていたい
DYEAR=1998
DGENRE=JPop
TTITLE0=見つめていたい
TTITLE1=moon 〜私へ〜
TTITLE2=見つめていたい [Off vocal Version]
EXTD=YEAR: 1998
EXTT0=
EXTT1=
EXTT2=
PLAYORDER=
